P3
38 38
255
0 0 0 0 0 0 0 0 0 0 0 0 0 0 0 0 0 0 0 0 0 0 0 0 
0 0 0 0 0 0 0 0 0 0 0 0 0 0 0 1 1 1 4 4 4 6 6 6 
7 7 7 5 5 5 4 4 4 4 4 4 8 8 8 16 16 16 9 9 9 0 0 0 
0 0 0 0 0 0 0 0 0 0 0 0 0 0 0 0 0 0 0 0 0 0 0 0 
0 0 0 0 0 0 0 0 0 0 0 0 0 0 0 0 0 0 
0 0 0 0 0 0 0 0 0 0 0 0 0 0 0 0 0 0 0 0 0 0 0 0 
0 0 0 0 0 0 0 0 0 4 4 4 11 11 11 15 15 15 17 17 17 20 20 20 
20 21 21 19 19 19 17 17 17 15 16 16 22 22 22 34 35 35 43 44 44 47 48 48 
37 38 38 21 21 21 6 6 6 0 0 0 0 0 0 0 0 0 0 0 0 0 0 0 
0 0 0 0 0 0 0 0 0 0 0 0 0 0 0 0 0 0 
0 0 0 0 0 0 0 0 0 0 0 0 0 0 0 0 0 0 0 0 0 0 0 0 
0 0 0 0 0 0 1 1 1 19 19 19 36 37 37 41 42 42 42 44 44 44 46 46 
44 46 46 44 45 45 43 44 44 39 40 40 48 49 49 69 71 71 107 109 109 150 151 151 
132 134 134 78 79 79 30 30 30 0 0 0 0 0 0 0 0 0 0 0 0 0 0 0 
0 0 0 0 0 0 0 0 0 0 0 0 0 0 0 0 0 0 
0 0 0 0 0 0 0 0 0 0 0 0 0 0 0 0 0 0 0 0 0 1 1 1 
5 5 5 12 12 12 21 21 21 34 35 35 45 46 46 48 49 49 48 51 51 49 51 51 
49 51 51 50 51 51 48 50 50 46 48 48 52 54 54 64 66 66 104 105 105 156 157 157 
167 168 168 147 148 148 102 103 103 51 51 51 19 19 19 2 2 2 0 0 0 0 0 0 
0 0 0 0 0 0 0 0 0 0 0 0 0 0 0 0 0 0 
0 0 0 0 0 0 0 0 0 0 0 0 0 0 0 0 0 0 0 0 0 4 3 3 
15 14 14 35 36 36 53 54 54 49 51 51 42 44 44 42 43 43 42 44 44 41 42 42 
40 42 42 40 42 42 41 43 43 42 44 44 40 43 43 40 42 42 60 62 62 97 98 98 
156 158 158 211 212 212 198 200 200 148 150 150 78 79 79 15 16 16 2 2 2 0 0 0 
0 0 0 0 0 0 0 0 0 0 0 0 0 0 0 0 0 0 
0 0 0 0 0 0 0 0 0 0 0 0 0 0 0 4 4 4 15 14 14 20 20 20 
27 27 27 42 43 43 53 55 55 47 49 49 39 41 41 36 38 38 35 37 37 35 37 37 
35 37 37 36 38 38 38 40 40 41 43 43 40 42 42 37 39 39 41 43 43 58 60 60 
122 124 124 198 200 200 212 214 214 191 193 193 140 142 142 80 81 81 36 37 37 5 6 6 
0 0 0 0 0 0 0 0 0 0 0 0 0 0 0 0 0 0 
0 0 0 0 0 0 0 0 0 0 0 0 0 0 0 14 14 14 36 35 35 39 40 40 
35 37 37 37 39 39 38 40 40 37 39 39 35 37 37 32 34 34 31 33 33 32 34 34 
33 35 35 34 36 36 37 39 39 42 44 44 45 47 47 45 47 47 38 40 40 34 36 36 
76 78 78 140 142 142 179 181 181 199 201 201 196 198 198 167 168 168 93 95 95 27 28 28 
5 6 6 0 0 0 0 0 0 0 0 0 0 0 0 0 0 0 
0 0 0 0 0 0 0 0 0 0 0 0 3 3 3 17 17 17 35 36 36 37 39 39 
33 35 35 33 35 35 32 34 34 32 34 34 31 33 33 30 32 32 29 31 31 30 32 32 
32 34 34 34 36 36 37 39 39 42 44 44 43 45 45 42 44 44 35 37 37 29 31 31 
50 52 52 90 92 92 144 146 146 193 195 195 211 212 212 196 198 198 150 151 151 91 92 92 
31 31 31 0 0 0 0 0 0 0 0 0 0 0 0 0 0 0 
0 0 0 0 0 0 0 0 0 3 3 3 11 10 10 19 20 20 27 29 29 27 30 30 
25 27 27 28 30 30 31 33 33 30 32 32 28 30 30 28 30 30 29 31 31 30 32 32 
31 33 33 34 36 36 38 40 40 40 42 42 40 42 42 37 39 39 34 36 36 33 35 35 
34 36 36 48 50 50 110 112 112 180 182 182 201 203 203 201 203 203 195 197 197 161 163 163 
72 73 73 6 6 6 0 0 0 0 0 0 0 0 0 0 0 0 
0 0 0 0 0 0 0 0 0 8 8 8 23 25 25 28 29 29 24 26 26 24 26 26 
26 28 28 28 30 30 29 31 31 28 30 30 28 30 30 28 30 30 29 31 31 30 32 32 
32 34 34 35 37 37 38 40 40 39 41 41 37 39 39 32 34 34 30 32 32 30 32 32 
25 27 27 31 33 33 97 98 98 177 180 180 201 203 203 206 208 208 211 212 212 194 196 196 
131 132 132 67 68 68 19 19 19 0 0 0 0 0 0 0 0 0 
0 0 0 0 0 0 0 0 0 13 13 13 37 38 38 36 37 37 23 25 25 24 26 26 
28 30 30 28 30 30 28 30 30 29 31 31 29 31 31 28 30 30 27 29 29 30 32 32 
33 35 35 36 38 38 38 40 40 39 41 41 35 37 37 28 30 30 26 28 28 27 29 29 
21 23 23 27 29 29 91 92 92 169 171 171 198 200 200 204 206 206 209 211 211 199 201 201 
178 180 180 129 130 130 42 43 43 0 0 0 0 0 0 0 0 0 
0 0 0 0 0 0 1 1 1 17 17 17 39 40 40 37 39 39 23 25 25 24 26 26 
30 32 32 29 31 31 28 30 30 29 31 31 29 31 31 28 30 30 28 30 30 28 30 30 
30 32 32 36 38 38 39 41 41 40 42 42 35 37 37 27 29 29 24 26 26 26 28 28 
21 23 23 25 27 27 79 81 81 147 148 148 180 182 182 191 193 193 186 188 188 178 180 180 
176 178 178 143 145 145 57 59 59 2 3 3 0 0 0 0 0 0 
0 0 0 2 2 2 8 8 8 21 22 22 36 38 38 34 36 36 24 26 26 26 28 28 
31 33 33 30 32 32 28 30 30 30 32 32 31 33 33 31 33 33 30 32 32 28 30 30 
30 32 32 35 37 37 39 41 41 39 41 41 34 36 36 27 29 29 25 27 27 27 29 29 
23 25 25 25 27 27 64 66 66 119 120 120 155 157 157 174 177 177 168 170 170 156 158 158 
161 163 163 139 140 140 67 68 68 17 18 18 3 3 3 0 0 0 
0 0 0 6 6 6 22 22 22 29 29 29 29 30 30 26 28 28 23 25 25 25 27 27 
29 31 31 30 32 32 31 33 33 33 35 35 35 37 37 35 37 37 34 36 36 32 34 34 
32 34 34 34 36 36 34 36 36 33 35 35 31 33 33 30 32 32 29 31 31 29 31 31 
23 25 25 23 25 25 48 50 50 86 88 88 126 128 128 156 158 158 162 164 164 156 158 158 
145 147 147 119 120 120 72 73 73 33 34 34 8 8 8 0 0 0 
0 0 0 11 11 11 36 37 37 38 38 38 24 26 26 19 21 21 21 23 23 24 26 26 
28 30 30 31 33 33 32 34 34 37 39 39 40 42 42 39 41 41 37 39 39 34 36 36 
33 35 35 32 34 34 31 33 33 29 31 31 29 31 31 32 34 34 32 34 34 29 31 31 
24 26 26 22 24 24 37 39 39 63 64 64 100 102 102 136 137 137 158 160 160 163 165 165 
144 146 146 116 117 117 86 88 88 53 53 53 14 14 14 0 0 0 
0 0 0 14 14 14 47 47 47 47 48 48 26 28 28 19 21 21 21 23 23 25 27 27 
31 33 33 32 34 34 33 35 35 41 43 43 46 48 48 43 45 45 38 40 40 33 35 35 
32 34 34 33 35 35 32 34 34 31 33 33 31 33 33 33 35 35 32 34 34 29 31 31 
24 26 26 22 24 24 34 35 35 54 55 55 83 85 85 115 116 116 152 153 153 174 177 177 
168 170 170 148 150 150 119 120 120 76 78 78 21 21 21 0 0 0 
0 0 0 15 15 15 50 51 51 50 51 51 27 30 30 19 21 21 21 23 23 26 28 28 
31 33 33 32 34 34 33 35 35 41 43 43 47 49 49 43 45 45 37 39 39 32 34 34 
31 33 33 32 34 34 33 35 35 34 36 36 34 36 36 36 38 38 35 37 37 31 33 33 
26 28 28 22 24 24 35 36 36 54 56 56 79 81 81 107 109 109 143 145 145 169 171 171 
176 178 178 164 166 166 133 135 135 89 90 90 25 25 25 0 0 0 
0 0 0 12 12 12 41 42 42 43 45 45 28 30 30 21 23 23 22 24 24 24 26 26 
29 31 31 30 32 32 33 35 35 38 40 40 42 44 44 38 40 40 34 36 36 30 32 32 
29 31 31 31 33 33 34 36 36 38 40 40 41 43 43 43 45 45 42 44 44 37 39 39 
29 31 31 24 26 26 39 41 41 64 66 66 97 98 98 123 125 125 133 135 135 140 142 142 
153 155 155 151 153 153 122 124 124 80 81 81 22 22 22 0 0 0 
0 0 0 11 11 11 36 37 37 39 41 41 28 30 30 23 25 25 22 24 24 24 26 26 
27 29 29 29 31 31 32 34 34 35 37 37 37 39 39 36 38 38 33 35 35 32 34 34 
31 33 33 33 35 35 36 38 38 41 43 43 45 47 47 47 49 49 46 48 48 41 43 43 
33 35 35 28 30 30 46 48 48 76 78 78 116 117 117 142 144 144 132 134 134 121 123 123 
139 140 140 141 143 143 117 118 118 76 78 78 21 22 22 0 0 0 
0 0 0 11 11 11 36 37 37 40 42 42 29 31 31 25 27 27 23 25 25 22 24 24 
24 26 26 27 29 29 31 33 33 32 34 34 34 36 36 35 37 37 35 37 37 36 38 38 
37 39 39 39 41 41 40 42 42 43 45 45 44 46 46 46 48 48 46 48 48 46 48 48 
39 41 41 36 38 38 54 56 56 86 88 88 132 134 134 163 165 165 139 140 140 117 118 118 
133 135 135 139 140 140 119 120 120 79 81 81 22 23 23 0 0 0 
0 0 0 11 12 12 39 41 41 44 46 46 34 36 36 28 30 30 24 26 26 23 25 25 
24 26 26 27 29 29 30 32 32 30 32 32 31 33 33 34 36 36 37 39 39 37 39 39 
38 40 40 41 43 43 42 44 44 43 45 45 44 46 46 45 47 47 46 48 48 48 50 50 
43 45 45 41 43 43 59 61 61 89 90 90 140 142 142 174 177 177 147 148 148 120 122 122 
140 142 142 147 148 148 120 122 122 80 81 81 22 22 22 0 0 0 
0 0 0 13 14 14 45 47 47 52 54 54 40 42 42 33 35 35 27 29 29 26 28 28 
27 29 29 29 31 31 30 32 32 29 31 31 29 31 31 34 36 36 38 40 40 35 37 37 
35 37 37 39 41 41 42 44 44 43 45 45 44 46 46 45 47 47 46 48 48 48 50 50 
45 47 47 44 46 46 60 62 62 88 90 90 142 144 144 181 183 183 155 157 157 132 134 134 
155 158 158 162 164 164 123 125 125 75 76 76 20 21 21 0 0 0 
0 0 0 13 13 13 44 45 45 51 53 53 42 44 44 36 38 38 31 33 33 30 32 32 
30 32 32 30 32 32 30 32 32 30 32 32 30 32 32 34 36 36 35 37 37 32 34 34 
34 36 36 39 41 41 43 45 45 43 45 45 43 45 45 45 47 47 46 48 48 46 48 48 
45 47 47 46 48 48 61 63 63 88 90 90 141 143 143 180 182 182 161 163 163 142 144 144 
164 166 166 163 165 165 110 112 112 61 60 60 16 16 16 0 0 0 
0 0 0 10 10 10 35 36 36 46 47 47 43 45 45 40 43 43 37 39 39 36 38 38 
35 37 37 32 34 34 29 31 31 31 33 33 34 36 36 33 35 35 32 34 34 31 33 33 
33 35 35 40 42 42 44 46 46 44 46 46 45 47 47 46 48 48 46 48 48 44 46 46 
43 45 45 48 50 50 64 66 66 93 95 95 139 140 140 176 178 178 166 168 168 153 155 155 
167 168 168 156 157 157 91 92 92 38 38 38 9 9 9 0 0 0 
0 0 0 6 5 5 21 21 21 37 37 37 51 53 53 51 53 53 43 45 45 38 40 40 
34 36 36 31 33 33 29 31 31 32 34 34 35 37 37 31 33 33 29 31 31 28 30 30 
32 34 34 40 42 42 45 47 47 45 47 47 46 48 48 48 50 50 47 49 49 43 45 45 
42 44 44 48 50 50 75 76 76 113 115 115 151 153 153 179 181 181 178 180 180 172 174 174 
179 181 181 156 157 157 77 77 77 20 20 20 3 3 3 0 0 0 
0 0 0 1 0 0 5 3 3 27 27 27 58 60 60 61 63 63 48 50 50 39 41 41 
32 34 34 29 31 31 30 32 32 33 35 35 35 37 37 31 33 33 28 30 30 29 31 31 
32 34 34 42 44 44 46 48 48 46 48 48 48 50 50 48 50 50 47 49 49 45 47 47 
42 44 44 48 50 50 90 92 92 143 145 145 172 174 174 186 188 188 194 196 196 194 196 196 
190 192 192 154 156 156 63 64 64 5 5 5 0 0 0 0 0 0 
0 0 0 0 0 0 0 0 0 20 20 20 53 54 54 59 61 61 49 51 51 43 45 45 
38 40 40 35 37 37 34 36 36 34 36 36 35 37 37 35 37 37 34 36 36 35 37 37 
38 40 40 45 47 47 49 51 51 50 52 52 49 51 51 48 50 50 47 49 49 47 49 49 
42 44 44 45 47 47 100 102 102 166 168 168 190 192 192 199 201 201 216 218 218 216 218 218 
186 188 188 129 130 130 46 47 47 0 0 0 0 0 0 0 0 0 
0 0 0 0 0 0 0 0 0 14 14 14 41 42 42 50 51 51 48 50 50 48 50 50 
46 48 48 42 44 44 38 40 40 36 38 38 36 38 38 40 42 42 43 45 45 43 45 45 
45 47 47 50 52 52 52 54 54 52 54 54 51 53 53 47 49 49 47 49 49 49 51 51 
43 45 45 47 49 49 110 112 112 183 185 185 206 208 208 212 214 214 228 230 230 221 223 223 
161 163 163 88 90 90 27 28 28 0 0 0 0 0 0 0 0 0 
0 0 0 0 0 0 0 0 0 6 6 6 21 21 21 37 38 38 50 52 52 51 53 53 
45 47 47 43 45 45 42 44 44 40 42 42 41 43 43 44 46 46 46 48 48 46 48 48 
48 50 50 51 53 53 53 55 55 53 55 55 52 54 54 49 51 51 47 49 49 47 49 49 
47 49 49 59 61 61 126 128 128 201 203 203 221 223 223 216 218 218 211 212 212 181 183 183 
102 103 103 36 37 37 8 8 8 0 0 0 0 0 0 0 0 0 
0 0 0 0 0 0 0 0 0 0 0 0 3 3 3 24 24 24 50 50 50 51 53 53 
44 46 46 44 46 46 44 46 46 44 46 46 46 48 48 46 48 48 47 49 49 47 49 49 
49 51 51 51 53 53 52 54 54 52 54 54 52 54 54 51 53 53 46 48 48 43 45 45 
57 59 59 88 90 90 151 153 153 212 214 214 228 230 230 206 208 208 170 172 172 118 119 119 
44 44 44 0 0 0 0 0 0 0 0 0 0 0 0 0 0 0 
0 0 0 0 0 0 0 0 0 0 0 0 0 0 0 12 12 12 33 33 33 45 47 47 
52 55 55 49 51 51 43 45 45 44 46 46 46 48 48 46 48 48 46 48 48 48 50 50 
49 51 51 50 52 52 51 53 53 52 54 54 52 54 54 50 52 52 40 42 42 33 35 35 
80 81 81 154 156 156 198 200 200 221 223 223 212 214 214 177 180 180 115 116 116 53 54 54 
13 13 13 0 0 0 0 0 0 0 0 0 0 0 0 0 0 0 
0 0 0 0 0 0 0 0 0 0 0 0 0 0 0 5 5 5 15 15 15 34 35 35 
52 54 54 49 51 51 42 44 44 44 46 46 46 48 48 46 48 48 45 47 47 48 50 50 
50 52 52 50 52 52 51 53 53 52 54 54 51 53 53 48 50 50 43 45 45 46 48 48 
115 116 116 204 206 206 221 223 223 204 206 206 174 177 177 131 132 132 60 62 62 5 6 6 
0 0 0 0 0 0 0 0 0 0 0 0 0 0 0 0 0 0 
0 0 0 0 0 0 0 0 0 0 0 0 0 0 0 1 1 1 4 4 4 15 16 16 
28 29 29 38 39 39 45 47 47 48 51 51 49 51 51 48 50 50 48 50 50 51 53 53 
52 54 54 52 54 54 52 54 54 52 54 54 46 48 48 40 42 42 69 71 71 120 122 122 
172 174 174 209 211 211 191 193 193 147 148 148 98 100 100 54 55 55 19 19 19 0 0 0 
0 0 0 0 0 0 0 0 0 0 0 0 0 0 0 0 0 0 
0 0 0 0 0 0 0 0 0 0 0 0 0 0 0 0 0 0 0 0 0 2 2 2 
7 7 7 23 24 24 38 40 40 43 45 45 45 47 47 48 50 50 50 52 52 52 54 54 
52 54 54 52 54 54 51 53 53 49 51 51 49 51 51 51 53 53 97 98 98 161 163 163 
181 183 183 170 172 172 133 135 135 83 85 85 34 35 35 3 2 2 0 0 0 0 0 0 
0 0 0 0 0 0 0 0 0 0 0 0 0 0 0 0 0 0 
0 0 0 0 0 0 0 0 0 0 0 0 0 0 0 0 0 0 0 0 0 0 0 0 
1 1 1 6 7 7 13 13 13 20 21 21 29 29 29 44 44 44 51 53 53 49 51 51 
47 49 49 48 50 50 47 49 49 45 47 47 63 64 64 98 100 100 117 118 118 121 123 123 
104 105 105 77 77 77 50 51 51 24 26 26 8 8 8 0 0 0 0 0 0 0 0 0 
0 0 0 0 0 0 0 0 0 0 0 0 0 0 0 0 0 0 
0 0 0 0 0 0 0 0 0 0 0 0 0 0 0 0 0 0 0 0 0 0 0 0 
0 0 0 0 0 0 0 0 0 3 3 3 13 13 13 31 31 31 41 42 42 39 41 41 
35 37 37 36 37 37 34 36 36 33 35 35 57 59 59 102 103 103 102 103 103 72 73 73 
40 41 41 11 12 12 0 0 0 0 0 0 0 0 0 0 0 0 0 0 0 0 0 0 
0 0 0 0 0 0 0 0 0 0 0 0 0 0 0 0 0 0 
0 0 0 0 0 0 0 0 0 0 0 0 0 0 0 0 0 0 0 0 0 0 0 0 
0 0 0 0 0 0 0 0 0 0 0 0 3 3 3 8 8 8 13 13 13 17 18 18 
18 18 18 13 13 13 11 11 11 11 11 11 20 21 21 38 38 38 35 36 36 21 21 21 
9 9 9 1 1 1 0 0 0 0 0 0 0 0 0 0 0 0 0 0 0 0 0 0 
0 0 0 0 0 0 0 0 0 0 0 0 0 0 0 0 0 0 
0 0 0 0 0 0 0 0 0 0 0 0 0 0 0 0 0 0 0 0 0 0 0 0 
0 0 0 0 0 0 0 0 0 0 0 0 0 0 0 0 0 0 0 0 0 6 6 6 
9 8 8 2 2 2 0 0 0 0 0 0 1 1 1 4 4 4 2 2 2 0 0 0 
0 0 0 0 0 0 0 0 0 0 0 0 0 0 0 0 0 0 0 0 0 0 0 0 
0 0 0 0 0 0 0 0 0 0 0 0 0 0 0 0 0 0 
